<svg width="90" height="36" fill="none" xmlns="http://www.w3.org/2000/svg"><g clip-path="url(#a)" fill-rule="evenodd" clip-rule="evenodd"><path d="M3.364 0A3.364 3.364 0 0 0 0 3.364v25.234a3.364 3.364 0 0 0 3.364 3.364h55.514a3.364 3.364 0 0 0 3.365-3.364V3.364A3.364 3.364 0 0 0 58.878 0H3.364Z" fill="#1E1E1E"/><path d="M17.477 11.073h4.946c-.07-4.35-3.647-7.354-9.08-7.354-5.352 0-9.273 2.955-9.25 7.39-.011 3.598 2.527 5.66 6.65 6.65l2.658.668c2.658.642 4.135 1.406 4.147 3.051-.012 1.787-1.704 3.003-4.325 3.003-2.681 0-4.613-1.24-4.78-3.683H3.45c.131 5.28 3.91 8.01 9.833 8.01 5.96 0 9.462-2.85 9.474-7.318-.012-4.064-3.073-6.223-7.317-7.175l-2.192-.525c-2.122-.49-3.898-1.275-3.863-3.028 0-1.573 1.395-2.728 3.921-2.728 2.468 0 3.982 1.12 4.172 3.04ZM48.084 28.462h-5.006V4.055h5.079v9.176h.155c.678-1.49 2.144-3.314 5.208-3.314 4.015 0 7.412 3.124 7.412 9.416 0 6.127-3.254 9.427-7.424 9.427-2.956 0-4.493-1.704-5.197-3.23h-.227v2.932ZM35.861 20.669c.012 2.454-1.668 3.741-3.492 3.741-1.92 0-3.16-1.346-3.17-3.503v-10.75H24.12v11.655c.012 4.278 2.515 6.89 6.197 6.89 2.754 0 4.733-1.419 5.555-3.564h.19v3.324h4.875V10.156h-5.077V20.67Z" fill="#fff"/><path d="M51.9 13.957c-2.466 0-3.85 2.086-3.85 5.351s1.407 5.412 3.85 5.412c2.491 0 3.85-2.217 3.85-5.412 0-3.17-1.335-5.351-3.85-5.351ZM70.878 4.055H65.8v24.407h5.077V4.055ZM82.882 30.44c-1.036 2.955-3.038 4.887-6.816 4.887-1.287 0-2.468-.214-3.195-.525l1.144-3.79c1.788.548 3.064.465 3.731-1.25l.298-.776-6.567-18.83h5.34l3.79 13.444h.19l3.826-13.445 5.375.024-7.116 20.26Z" fill="#1E1E1E"/></g><defs><clipPath id="a"><path fill="#fff" d="M0 0h90v36H0z"/></clipPath></defs></svg>